<svg xmlns="http://www.w3.org/2000/svg" viewBox="0.00 39.96 452.77 111.12">
  <g transform="translate(-54.60, -12.54) scale(0.42)">
    <polygon points="130,125 200,125 256,241 291,314 256,387" fill="#5B32F5"/>
    <polygon points="312,125 382,125 306.6,281.9 271.6,209.1" fill="#5B32F5"/>
  </g>
  <path transform="translate(115.84,150.0) scale(0.072266,-0.072266)" d="M789 0Q753 0 734.0 10.5Q715 21 704 53L682 119Q644 86 609.0 61.0Q574 36 536.5 19.0Q499 2 456.5 -6.5Q414 -15 362 -15Q298 -15 245.0 2.5Q192 20 153.5 54.0Q115 88 94.0 138.5Q73 189 73 255Q73 310 101.0 365.0Q129 420 196.5 464.5Q264 509 376.5 538.5Q489 568 657 572V625Q657 721 617.0 766.0Q577 811 502 811Q446 811 409.5 798.0Q373 785 345.0 769.5Q317 754 293.0 741.0Q269 728 239 728Q213 728 194.5 741.5Q176 755 165 774L119 854Q205 934 309.0 973.0Q413 1012 534 1012Q621 1012 690.0 983.5Q759 955 807.0 903.5Q855 852 880.0 781.0Q905 710 905 625V0ZM441 158Q509 158 558.5 182.5Q608 207 657 258V418Q558 414 492.5 401.5Q427 389 388.0 369.5Q349 350 332.5 324.0Q316 298 316 268Q316 208 349.5 183.0Q383 158 441 158Z" fill="#0D0A1E"/>
  <path transform="translate(186.68,150.0) scale(0.072266,-0.072266)" d="M124 0V993H280Q304 993 320.5 982.0Q337 971 342 948L359 875Q389 905 421.0 929.5Q453 954 490.0 971.5Q527 989 568.5 999.0Q610 1009 660 1009Q741 1009 803.0 981.0Q865 953 907.0 903.0Q949 853 970.5 783.5Q992 714 992 632V0H738V632Q738 717 699.0 764.0Q660 811 582 811Q524 811 473.5 786.0Q423 761 378 716V0Z" fill="#0D0A1E"/>
  <path transform="translate(263.88,150.0) scale(0.072266,-0.072266)" d="M424 -15Q295 -15 226.0 59.5Q157 134 157 264V806H67Q47 806 33.0 819.5Q19 833 19 859V960L170 989L223 1251Q232 1292 279 1292H411V986H656V806H411V281Q411 237 430.0 212.5Q449 188 484 188Q503 188 515.5 192.5Q528 197 537.0 203.0Q546 209 553.5 213.5Q561 218 570 218Q581 218 588.0 212.5Q595 207 603 195L680 72Q628 29 561.5 7.0Q495 -15 424 -15Z" fill="#0D0A1E"/>
  <path transform="translate(312.97,150.0) scale(0.072266,-0.072266)" d="M110 0V993H259Q298 993 313.5 979.0Q329 965 334 930L347 829Q392 914 452.0 963.0Q512 1012 591 1012Q656 1012 698 981L679 791Q677 773 667.0 765.5Q657 758 640 758Q625 758 597.0 762.5Q569 767 545 767Q510 767 482.5 757.0Q455 747 433.5 727.5Q412 708 395.0 680.0Q378 652 364 616V0Z" fill="#0D0A1E"/>
  <path transform="translate(363.36,150.0) scale(0.072266,-0.072266)" d="M90 0ZM379 993V0H125V993ZM410 1278Q410 1245 397.0 1216.5Q384 1188 362.0 1166.5Q340 1145 310.0 1132.5Q280 1120 247 1120Q215 1120 186.5 1132.5Q158 1145 136.5 1166.5Q115 1188 102.5 1216.5Q90 1245 90 1278Q90 1311 102.5 1340.0Q115 1369 136.5 1390.5Q158 1412 186.5 1424.5Q215 1437 247 1437Q280 1437 310.0 1424.5Q340 1412 362.0 1390.5Q384 1369 397.0 1340.0Q410 1311 410 1278Z" fill="#0D0A1E"/>
  <path transform="translate(397.49,150.0) scale(0.072266,-0.072266)" d="M700 793Q690 776 678.5 769.5Q667 763 650 763Q632 763 612.5 772.5Q593 782 569.5 793.5Q546 805 516.0 814.5Q486 824 447 824Q387 824 354.0 796.5Q321 769 321 723Q321 692 340.0 671.5Q359 651 390.5 635.5Q422 620 461.5 607.0Q501 594 543.0 579.0Q585 564 624.5 543.5Q664 523 695.5 493.0Q727 463 746.0 420.0Q765 377 765 317Q765 245 740.0 184.0Q715 123 666.5 79.0Q618 35 546.5 10.0Q475 -15 381 -15Q333 -15 286.0 -6.0Q239 3 196.0 19.5Q153 36 115.5 58.0Q78 80 51 106L110 202Q121 219 136.0 229.0Q151 239 175 239Q197 239 216.5 227.0Q236 215 259.0 200.5Q282 186 314.0 174.0Q346 162 394 162Q430 162 455.5 171.0Q481 180 496.5 195.5Q512 211 519.5 231.0Q527 251 527 272Q527 316 494.0 340.5Q461 365 411.0 383.0Q361 401 303.5 420.0Q246 439 196.0 472.0Q146 505 113.0 559.0Q80 613 80 702Q80 764 103.0 819.5Q126 875 171.5 917.0Q217 959 284.5 984.0Q352 1009 442 1009Q491 1009 537.0 1000.0Q583 991 623.5 974.5Q664 958 697.5 935.0Q731 912 757 885Z" fill="#0D0A1E"/>
</svg>
